G04 Layer_Color=32896*
%FSLAX24Y24*%
%MOIN*%
G70*
G01*
G75*
%ADD29C,0.0050*%
%ADD30C,0.0100*%
%ADD33C,0.0020*%
%ADD35C,0.0039*%
G54D29*
X27983Y1967D02*
Y2091D01*
Y1967D02*
X28000Y1950D01*
X27983Y909D02*
Y1033D01*
X28000Y1050D01*
X26015Y1965D02*
Y2091D01*
X26000Y1950D02*
X26015Y1965D01*
Y909D02*
Y1035D01*
X26000Y1050D02*
X26015Y1035D01*
G54D30*
X27950Y531D02*
Y4500D01*
X34697D01*
Y531D02*
Y4500D01*
X27950Y531D02*
X34697D01*
X26500Y400D02*
Y1000D01*
X26800D01*
X26900Y900D01*
Y500D01*
X26800Y400D01*
X26500D01*
X27100Y1000D02*
X27300D01*
X27200D01*
Y400D01*
X27100Y500D01*
X31500Y4500D02*
Y5100D01*
X31200D01*
X31100Y5000D01*
Y4800D01*
X31200Y4700D01*
X31500D01*
X30800Y4500D02*
X30600D01*
X30500Y4600D01*
Y4800D01*
X30600Y4900D01*
X30800D01*
X30900Y4800D01*
Y4600D01*
X30800Y4500D01*
X30300Y4900D02*
Y4600D01*
X30200Y4500D01*
X30100Y4600D01*
X30000Y4500D01*
X29901Y4600D01*
Y4900D01*
X29401Y4500D02*
X29601D01*
X29701Y4600D01*
Y4800D01*
X29601Y4900D01*
X29401D01*
X29301Y4800D01*
Y4700D01*
X29701D01*
X29101Y4900D02*
Y4500D01*
Y4700D01*
X29001Y4800D01*
X28901Y4900D01*
X28801D01*
X22295Y4265D02*
X22895D01*
Y4565D01*
X22795Y4665D01*
X22595D01*
X22495Y4565D01*
Y4265D01*
Y4465D02*
X22295Y4665D01*
Y5165D02*
Y4965D01*
X22395Y4865D01*
X22595D01*
X22695Y4965D01*
Y5165D01*
X22595Y5265D01*
X22495D01*
Y4865D01*
X22095Y5665D02*
Y5765D01*
X22195Y5864D01*
X22695D01*
Y5565D01*
X22595Y5465D01*
X22395D01*
X22295Y5565D01*
Y5864D01*
X22795Y6064D02*
X22895Y6164D01*
Y6364D01*
X22795Y6464D01*
X22695D01*
X22595Y6364D01*
Y6264D01*
Y6364D01*
X22495Y6464D01*
X22395D01*
X22295Y6364D01*
Y6164D01*
X22395Y6064D01*
X22295Y6664D02*
X22395D01*
Y6764D01*
X22295D01*
Y6664D01*
X22795Y7164D02*
X22895Y7264D01*
Y7464D01*
X22795Y7564D01*
X22695D01*
X22595Y7464D01*
Y7364D01*
Y7464D01*
X22495Y7564D01*
X22395D01*
X22295Y7464D01*
Y7264D01*
X22395Y7164D01*
X22895Y7764D02*
X22495D01*
X22295Y7964D01*
X22495Y8164D01*
X22895D01*
X22295Y765D02*
X22895D01*
Y1065D01*
X22795Y1165D01*
X22595D01*
X22495Y1065D01*
Y765D01*
Y965D02*
X22295Y1165D01*
Y1665D02*
Y1465D01*
X22395Y1365D01*
X22595D01*
X22695Y1465D01*
Y1665D01*
X22595Y1765D01*
X22495D01*
Y1365D01*
X22095Y2165D02*
Y2265D01*
X22195Y2364D01*
X22695D01*
Y2065D01*
X22595Y1965D01*
X22395D01*
X22295Y2065D01*
Y2364D01*
X22895Y2964D02*
Y2564D01*
X22595D01*
X22695Y2764D01*
Y2864D01*
X22595Y2964D01*
X22395D01*
X22295Y2864D01*
Y2664D01*
X22395Y2564D01*
X22895Y3164D02*
X22495D01*
X22295Y3364D01*
X22495Y3564D01*
X22895D01*
X6000Y8500D02*
X6600D01*
Y8800D01*
X6500Y8900D01*
X6300D01*
X6200Y8800D01*
Y8500D01*
Y8700D02*
X6000Y8900D01*
Y9100D02*
Y9300D01*
Y9200D01*
X6600D01*
X6500Y9100D01*
X6000Y9600D02*
Y9800D01*
Y9700D01*
X6600D01*
X6500Y9600D01*
X4500Y8500D02*
X5100D01*
Y8800D01*
X5000Y8900D01*
X4800D01*
X4700Y8800D01*
Y8500D01*
Y8700D02*
X4500Y8900D01*
Y9100D02*
Y9300D01*
Y9200D01*
X5100D01*
X5000Y9100D01*
X4500Y10000D02*
Y9600D01*
X4900Y10000D01*
X5000D01*
X5100Y9900D01*
Y9700D01*
X5000Y9600D01*
X3500Y10000D02*
X2900D01*
Y9700D01*
X3000Y9600D01*
X3200D01*
X3300Y9700D01*
Y10000D01*
Y9800D02*
X3500Y9600D01*
Y9400D02*
Y9200D01*
Y9300D01*
X2900D01*
X3000Y9400D01*
Y8900D02*
X2900Y8800D01*
Y8600D01*
X3000Y8500D01*
X3100D01*
X3200Y8600D01*
Y8700D01*
Y8600D01*
X3300Y8500D01*
X3400D01*
X3500Y8600D01*
Y8800D01*
X3400Y8900D01*
X1000Y5500D02*
X400D01*
Y5200D01*
X500Y5100D01*
X700D01*
X800Y5200D01*
Y5500D01*
Y5300D02*
X1000Y5100D01*
Y4900D02*
Y4700D01*
Y4800D01*
X400D01*
X500Y4900D01*
X1000Y4100D02*
X400D01*
X700Y4400D01*
Y4000D01*
X10500Y13500D02*
Y14100D01*
X10200D01*
X10100Y14000D01*
Y13800D01*
X10200Y13700D01*
X10500D01*
X10300D02*
X10100Y13500D01*
X9900D02*
X9700D01*
X9800D01*
Y14100D01*
X9900Y14000D01*
X9000Y14100D02*
X9400D01*
Y13800D01*
X9200Y13900D01*
X9100D01*
X9000Y13800D01*
Y13600D01*
X9100Y13500D01*
X9300D01*
X9400Y13600D01*
G54D33*
X1200Y4250D02*
Y4700D01*
X1800Y5100D02*
Y5550D01*
X1200D02*
X1800D01*
X1200Y5100D02*
Y5550D01*
Y4250D02*
X1800D01*
Y4700D01*
X3300Y7800D02*
Y8250D01*
X2700Y6950D02*
Y7400D01*
Y6950D02*
X3300D01*
Y7400D01*
X2700Y8250D02*
X3300D01*
X2700Y7800D02*
Y8250D01*
X4800Y7800D02*
Y8250D01*
X4200Y6950D02*
Y7400D01*
Y6950D02*
X4800D01*
Y7400D01*
X4200Y8250D02*
X4800D01*
X4200Y7800D02*
Y8250D01*
X6300Y7800D02*
Y8250D01*
X5700Y6950D02*
Y7400D01*
Y6950D02*
X6300D01*
Y7400D01*
X5700Y8250D02*
X6300D01*
X5700Y7800D02*
Y8250D01*
X10300Y12800D02*
Y13250D01*
X9700Y11950D02*
Y12400D01*
Y11950D02*
X10300D01*
Y12400D01*
X9700Y13250D02*
X10300D01*
X9700Y12800D02*
Y13250D01*
G54D35*
X17717Y6075D02*
Y6331D01*
X18504D01*
X17717Y6075D02*
X18504D01*
X17717Y4461D02*
Y4717D01*
X18504D01*
X17717Y4461D02*
X18504D01*
X20906Y4205D02*
Y6567D01*
X18504D02*
X20906D01*
X18504Y4205D02*
Y6567D01*
Y4205D02*
X20906D01*
Y4461D02*
X21299D01*
Y6332D01*
X20906D02*
X21299D01*
X26548Y909D02*
Y2091D01*
X26558Y949D02*
Y2091D01*
X26015Y909D02*
X27983D01*
X26015Y2091D02*
X27983D01*
X17717Y2575D02*
Y2831D01*
X18504D01*
X17717Y2575D02*
X18504D01*
X17717Y961D02*
Y1217D01*
X18504D01*
X17717Y961D02*
X18504D01*
X20906Y705D02*
Y3067D01*
X18504D02*
X20906D01*
X18504Y705D02*
Y3067D01*
Y705D02*
X20906D01*
Y961D02*
X21299D01*
Y2832D01*
X20906D02*
X21299D01*
M02*
