G04 Layer_Color=65535*
%FSLAX24Y24*%
%MOIN*%
G70*
G01*
G75*
%ADD29C,0.0050*%
%ADD30C,0.0100*%
%ADD31C,0.0197*%
%ADD32C,0.0079*%
%ADD33C,0.0020*%
%ADD34C,0.0020*%
%ADD35C,0.0039*%
%ADD36C,0.0250*%
G54D29*
X9500Y8750D02*
G03*
X9500Y9250I0J250D01*
G01*
X9500Y8300D02*
X23500D01*
Y9700D01*
X9500D02*
X23500D01*
X9500Y9250D02*
Y9700D01*
Y8300D02*
Y8750D01*
G54D30*
X992Y3996D02*
G03*
X2008Y3996I508J-996D01*
G01*
X13500Y17500D02*
X15000D01*
X13500Y11500D02*
X17000D01*
X18000D01*
X13500D02*
Y13500D01*
Y17500D01*
X15000D02*
X20000D01*
X18000Y11500D02*
X24500D01*
X20000Y17500D02*
X24500D01*
Y11500D02*
Y17500D01*
X1000Y4000D02*
X2000D01*
X4500Y500D02*
Y4500D01*
X3500Y500D02*
X4500D01*
X3500D02*
Y4500D01*
X4500D01*
X24000Y11000D02*
X24600D01*
X24000Y10600D01*
X24600D01*
X24000Y10400D02*
X24600D01*
Y10100D01*
X24500Y10000D01*
X24300D01*
X24200Y10100D01*
Y10400D01*
Y10200D02*
X24000Y10000D01*
X24600Y9401D02*
Y9800D01*
X24300D01*
Y9600D01*
Y9800D01*
X24000D01*
X9175Y7065D02*
X8775D01*
X8575Y7265D01*
X8775Y7465D01*
X9175D01*
X8875D01*
Y7065D01*
X8575Y7665D02*
Y8065D01*
Y7865D01*
X9175D01*
Y8265D02*
X8575D01*
X8775Y8465D01*
X8575Y8664D01*
X9175D01*
X8575Y9264D02*
Y8864D01*
X9175D01*
Y9264D01*
X8875Y8864D02*
Y9064D01*
X8675Y9864D02*
X8575Y9764D01*
Y9564D01*
X8675Y9464D01*
X9075D01*
X9175Y9564D01*
Y9764D01*
X9075Y9864D01*
X8875D01*
Y9664D01*
X9175Y10064D02*
X8775D01*
X8575Y10264D01*
X8775Y10464D01*
X9175D01*
X8875D01*
Y10064D01*
X31900Y12600D02*
X31700D01*
X31800D01*
Y12100D01*
X31700Y12000D01*
X31600D01*
X31500Y12100D01*
X32100Y12600D02*
Y12000D01*
X32400D01*
X32500Y12100D01*
Y12500D01*
X32400Y12600D01*
X32100D01*
X900D02*
X700D01*
X800D01*
Y12100D01*
X700Y12000D01*
X600D01*
X500Y12100D01*
X1500Y12500D02*
X1400Y12600D01*
X1200D01*
X1100Y12500D01*
Y12100D01*
X1200Y12000D01*
X1400D01*
X1500Y12100D01*
Y12300D01*
X1300D01*
X26000Y5100D02*
Y4500D01*
X26300D01*
X26400Y4600D01*
Y4700D01*
X26300Y4800D01*
X26000D01*
X26300D01*
X26400Y4900D01*
Y5000D01*
X26300Y5100D01*
X26000D01*
X26700Y4900D02*
X26900D01*
X27000Y4800D01*
Y4500D01*
X26700D01*
X26600Y4600D01*
X26700Y4700D01*
X27000D01*
X27300Y5000D02*
Y4900D01*
X27200D01*
X27400D01*
X27300D01*
Y4600D01*
X27400Y4500D01*
X27799Y5000D02*
Y4900D01*
X27699D01*
X27899D01*
X27799D01*
Y4600D01*
X27899Y4500D01*
X28499D02*
X28299D01*
X28199Y4600D01*
Y4800D01*
X28299Y4900D01*
X28499D01*
X28599Y4800D01*
Y4700D01*
X28199D01*
X28799Y4900D02*
Y4500D01*
Y4700D01*
X28899Y4800D01*
X28999Y4900D01*
X29099D01*
X29399Y4500D02*
X29599D01*
X29499D01*
Y4900D01*
X29399D01*
X30199Y4500D02*
X29999D01*
X29899Y4600D01*
Y4800D01*
X29999Y4900D01*
X30199D01*
X30299Y4800D01*
Y4700D01*
X29899D01*
X7400Y13000D02*
X7300Y13100D01*
X7100D01*
X7000Y13000D01*
Y12900D01*
X7100Y12800D01*
X7300D01*
X7400Y12700D01*
Y12600D01*
X7300Y12500D01*
X7100D01*
X7000Y12600D01*
X7600Y13100D02*
Y12500D01*
X7800Y12700D01*
X8000Y12500D01*
Y13100D01*
X8200Y12500D02*
X8400D01*
X8300D01*
Y13100D01*
X8200Y13000D01*
X6400Y3800D02*
X7000D01*
Y4200D01*
X6400Y4400D02*
X7000D01*
Y4700D01*
X6900Y4800D01*
X6500D01*
X6400Y4700D01*
Y4400D01*
X6500Y5399D02*
X6400Y5300D01*
Y5100D01*
X6500Y5000D01*
X6900D01*
X7000Y5100D01*
Y5300D01*
X6900Y5399D01*
X5000Y16600D02*
Y16000D01*
X5400D01*
X5600Y16600D02*
Y16000D01*
X5900D01*
X6000Y16100D01*
Y16500D01*
X5900Y16600D01*
X5600D01*
X6200D02*
Y16000D01*
X6599D01*
X6799D02*
X6999D01*
X6899D01*
Y16600D01*
X6799Y16500D01*
X2000Y16600D02*
Y16000D01*
X2400D01*
X2600Y16600D02*
Y16000D01*
X2900D01*
X3000Y16100D01*
Y16500D01*
X2900Y16600D01*
X2600D01*
X3200D02*
Y16000D01*
X3599D01*
X4199D02*
X3799D01*
X4199Y16400D01*
Y16500D01*
X4099Y16600D01*
X3899D01*
X3799Y16500D01*
X26500Y16600D02*
Y16000D01*
X26900D01*
X27100Y16600D02*
Y16000D01*
X27400D01*
X27500Y16100D01*
Y16500D01*
X27400Y16600D01*
X27100D01*
X27700Y16000D02*
Y16600D01*
X28000D01*
X28099Y16500D01*
Y16300D01*
X28000Y16200D01*
X27700D01*
X27900D02*
X28099Y16000D01*
X28299D02*
X28499D01*
X28399D01*
Y16600D01*
X28299Y16500D01*
X29000Y16600D02*
Y16000D01*
X29400D01*
X29600Y16600D02*
Y16000D01*
X29900D01*
X30000Y16100D01*
Y16500D01*
X29900Y16600D01*
X29600D01*
X30200Y16000D02*
Y16600D01*
X30500D01*
X30599Y16500D01*
Y16300D01*
X30500Y16200D01*
X30200D01*
X30400D02*
X30599Y16000D01*
X31199D02*
X30799D01*
X31199Y16400D01*
Y16500D01*
X31099Y16600D01*
X30899D01*
X30799Y16500D01*
X28000Y15500D02*
X28600D01*
Y15200D01*
X28500Y15100D01*
X28300D01*
X28200Y15200D01*
Y15500D01*
Y15300D02*
X28000Y15100D01*
Y14900D02*
Y14700D01*
Y14800D01*
X28600D01*
X28500Y14900D01*
X29500Y15000D02*
X28900D01*
Y15300D01*
X29000Y15400D01*
X29200D01*
X29300Y15300D01*
Y15000D01*
Y15200D02*
X29500Y15400D01*
Y16000D02*
Y15600D01*
X29100Y16000D01*
X29000D01*
X28900Y15900D01*
Y15700D01*
X29000Y15600D01*
X5000Y15000D02*
X4400D01*
Y15300D01*
X4500Y15400D01*
X4700D01*
X4800Y15300D01*
Y15000D01*
Y15200D02*
X5000Y15400D01*
X4500Y15600D02*
X4400Y15700D01*
Y15900D01*
X4500Y16000D01*
X4600D01*
X4700Y15900D01*
Y15800D01*
Y15900D01*
X4800Y16000D01*
X4900D01*
X5000Y15900D01*
Y15700D01*
X4900Y15600D01*
X3500Y16000D02*
X4100D01*
Y15700D01*
X4000Y15600D01*
X3800D01*
X3700Y15700D01*
Y16000D01*
Y15800D02*
X3500Y15600D01*
Y15100D02*
X4100D01*
X3800Y15400D01*
Y15000D01*
X7000Y2500D02*
X6400D01*
Y2800D01*
X6500Y2900D01*
X6700D01*
X6800Y2800D01*
Y2500D01*
Y2700D02*
X7000Y2900D01*
X6400Y3500D02*
Y3100D01*
X6700D01*
X6600Y3300D01*
Y3400D01*
X6700Y3500D01*
X6900D01*
X7000Y3400D01*
Y3200D01*
X6900Y3100D01*
X28000Y14500D02*
X28600D01*
Y14200D01*
X28500Y14100D01*
X28300D01*
X28200Y14200D01*
Y14500D01*
Y14300D02*
X28000Y14100D01*
X28600Y13500D02*
X28500Y13700D01*
X28300Y13900D01*
X28100D01*
X28000Y13800D01*
Y13600D01*
X28100Y13500D01*
X28200D01*
X28300Y13600D01*
Y13900D01*
X29500Y13500D02*
X28900D01*
Y13800D01*
X29000Y13900D01*
X29200D01*
X29300Y13800D01*
Y13500D01*
Y13700D02*
X29500Y13900D01*
X28900Y14100D02*
Y14500D01*
X29000D01*
X29400Y14100D01*
X29500D01*
X5000Y13500D02*
X4400D01*
Y13800D01*
X4500Y13900D01*
X4700D01*
X4800Y13800D01*
Y13500D01*
Y13700D02*
X5000Y13900D01*
X4500Y14100D02*
X4400Y14200D01*
Y14400D01*
X4500Y14500D01*
X4600D01*
X4700Y14400D01*
X4800Y14500D01*
X4900D01*
X5000Y14400D01*
Y14200D01*
X4900Y14100D01*
X4800D01*
X4700Y14200D01*
X4600Y14100D01*
X4500D01*
X4700Y14200D02*
Y14400D01*
X3500Y14500D02*
X4100D01*
Y14200D01*
X4000Y14100D01*
X3800D01*
X3700Y14200D01*
Y14500D01*
Y14300D02*
X3500Y14100D01*
X3600Y13900D02*
X3500Y13800D01*
Y13600D01*
X3600Y13500D01*
X4000D01*
X4100Y13600D01*
Y13800D01*
X4000Y13900D01*
X3900D01*
X3800Y13800D01*
Y13500D01*
X5500Y3000D02*
X4900D01*
Y3300D01*
X5000Y3400D01*
X5200D01*
X5300Y3300D01*
Y3000D01*
Y3200D02*
X5500Y3400D01*
Y3600D02*
Y3800D01*
Y3700D01*
X4900D01*
X5000Y3600D01*
Y4100D02*
X4900Y4200D01*
Y4400D01*
X5000Y4500D01*
X5400D01*
X5500Y4400D01*
Y4200D01*
X5400Y4100D01*
X5000D01*
X6000Y900D02*
X5900Y800D01*
Y600D01*
X6000Y500D01*
X6100D01*
X6200Y600D01*
Y800D01*
X6300Y900D01*
X6400D01*
X6500Y800D01*
Y600D01*
X6400Y500D01*
X6000Y1500D02*
X5900Y1400D01*
Y1200D01*
X6000Y1100D01*
X6400D01*
X6500Y1200D01*
Y1400D01*
X6400Y1500D01*
X6900Y13500D02*
X6800Y13600D01*
X6600D01*
X6500Y13500D01*
Y13400D01*
X6600Y13300D01*
X6800D01*
X6900Y13200D01*
Y13100D01*
X6800Y13000D01*
X6600D01*
X6500Y13100D01*
X7100Y13600D02*
Y13000D01*
X7500D01*
X7700D02*
X7900D01*
X7800D01*
Y13600D01*
X7700Y13500D01*
X2000Y15100D02*
X2100Y15200D01*
Y15400D01*
X2000Y15500D01*
X1900D01*
X1800Y15400D01*
Y15200D01*
X1700Y15100D01*
X1600D01*
X1500Y15200D01*
Y15400D01*
X1600Y15500D01*
X2100Y14900D02*
X1500D01*
Y14500D01*
Y13901D02*
Y14300D01*
X1900Y13901D01*
X2000D01*
X2100Y14000D01*
Y14200D01*
X2000Y14300D01*
X25400Y13500D02*
X25300Y13600D01*
X25100D01*
X25000Y13500D01*
Y13400D01*
X25100Y13300D01*
X25300D01*
X25400Y13200D01*
Y13100D01*
X25300Y13000D01*
X25100D01*
X25000Y13100D01*
X25600Y13000D02*
Y13600D01*
X25900D01*
X26000Y13500D01*
Y13300D01*
X25900Y13200D01*
X25600D01*
X25800D02*
X26000Y13000D01*
X26200D02*
X26400D01*
X26300D01*
Y13600D01*
X26200Y13500D01*
X31000Y14400D02*
X30900Y14300D01*
Y14100D01*
X31000Y14000D01*
X31100D01*
X31200Y14100D01*
Y14300D01*
X31300Y14400D01*
X31400D01*
X31500Y14300D01*
Y14100D01*
X31400Y14000D01*
X31500Y14600D02*
X30900D01*
Y14900D01*
X31000Y15000D01*
X31200D01*
X31300Y14900D01*
Y14600D01*
Y14800D02*
X31500Y15000D01*
Y15599D02*
Y15200D01*
X31100Y15599D01*
X31000D01*
X30900Y15500D01*
Y15300D01*
X31000Y15200D01*
X24600Y7500D02*
X24000D01*
X24300D01*
Y7100D01*
X24600D01*
X24000D01*
X24500Y6500D02*
X24600Y6600D01*
Y6800D01*
X24500Y6900D01*
X24100D01*
X24000Y6800D01*
Y6600D01*
X24100Y6500D01*
X24500Y6300D02*
X24600Y6200D01*
Y6000D01*
X24500Y5901D01*
X24100D01*
X24000Y6000D01*
Y6200D01*
X24100Y6300D01*
X24500D01*
X24600Y5301D02*
Y5701D01*
X24300D01*
X24400Y5501D01*
Y5401D01*
X24300Y5301D01*
X24100D01*
X24000Y5401D01*
Y5601D01*
X24100Y5701D01*
X400Y4000D02*
X1000D01*
Y4400D01*
Y4600D02*
X600D01*
X400Y4800D01*
X600Y5000D01*
X1000D01*
X700D01*
Y4600D01*
X400Y5200D02*
X1000D01*
Y5599D01*
X400Y5799D02*
X1000D01*
Y6199D01*
X2900Y500D02*
X3500D01*
Y900D01*
Y1100D02*
X2900D01*
Y1400D01*
X3000Y1500D01*
X3200D01*
X3300Y1400D01*
Y1100D01*
Y1300D02*
X3500Y1500D01*
X3000Y2099D02*
X2900Y2000D01*
Y1800D01*
X3000Y1700D01*
X3400D01*
X3500Y1800D01*
Y2000D01*
X3400Y2099D01*
X3200D01*
Y1900D01*
X2900Y2299D02*
X3500D01*
Y2599D01*
X3400Y2699D01*
X3300D01*
X3200Y2599D01*
Y2299D01*
Y2599D01*
X3100Y2699D01*
X3000D01*
X2900Y2599D01*
Y2299D01*
X25900Y1500D02*
X25800Y1600D01*
X25600D01*
X25500Y1500D01*
Y1400D01*
X25600Y1300D01*
X25800D01*
X25900Y1200D01*
Y1100D01*
X25800Y1000D01*
X25600D01*
X25500Y1100D01*
X26100Y1600D02*
Y1000D01*
X26300Y1200D01*
X26500Y1000D01*
Y1600D01*
X27099Y1000D02*
X26700D01*
X27099Y1400D01*
Y1500D01*
X27000Y1600D01*
X26800D01*
X26700Y1500D01*
X12400Y14500D02*
X13000D01*
Y14900D01*
X12400Y15100D02*
X13000D01*
Y15400D01*
X12900Y15500D01*
X12500D01*
X12400Y15400D01*
Y15100D01*
X13000Y15700D02*
X12400D01*
X13000Y16099D01*
X12400D01*
X13000Y16299D02*
X12400D01*
Y16599D01*
X12500Y16699D01*
X12700D01*
X12800Y16599D01*
Y16299D01*
Y16499D02*
X13000Y16699D01*
X12400Y17299D02*
Y16899D01*
X12700D01*
Y17099D01*
Y16899D01*
X13000D01*
X11900Y11500D02*
X12500D01*
Y11900D01*
X11900Y12100D02*
X12500D01*
Y12400D01*
X12400Y12500D01*
X12000D01*
X11900Y12400D01*
Y12100D01*
Y12700D02*
X12500D01*
Y13000D01*
X12400Y13099D01*
X12300D01*
X12200Y13000D01*
Y12700D01*
Y13000D01*
X12100Y13099D01*
X12000D01*
X11900Y13000D01*
Y12700D01*
Y13299D02*
Y13699D01*
Y13499D01*
X12500D01*
X15500Y15500D02*
X16100D01*
Y15200D01*
X16000Y15100D01*
X15800D01*
X15700Y15200D01*
Y15500D01*
Y15300D02*
X15500Y15100D01*
Y14900D02*
Y14700D01*
Y14800D01*
X16100D01*
X16000Y14900D01*
X16100Y14000D02*
X16000Y14200D01*
X15800Y14400D01*
X15600D01*
X15500Y14300D01*
Y14100D01*
X15600Y14000D01*
X15700D01*
X15800Y14100D01*
Y14400D01*
X15500Y13000D02*
X16100D01*
Y12700D01*
X16000Y12600D01*
X15800D01*
X15700Y12700D01*
Y13000D01*
Y12800D02*
X15500Y12600D01*
Y12400D02*
Y12200D01*
Y12300D01*
X16100D01*
X16000Y12400D01*
X16100Y11900D02*
Y11500D01*
X16000D01*
X15600Y11900D01*
X15500D01*
G54D31*
X957Y11362D02*
X2138Y12543D01*
X6862D02*
X8043Y11362D01*
X2138Y12543D02*
X6862D01*
Y5457D02*
X8043Y6638D01*
Y11362D01*
X2138Y5457D02*
X6862D01*
X957Y6638D02*
X2138Y5457D01*
X957Y6638D02*
Y11362D01*
X24957D02*
X26138Y12543D01*
X30862D02*
X32043Y11362D01*
X26138Y12543D02*
X30862D01*
Y5457D02*
X32043Y6638D01*
Y11362D01*
X26138Y5457D02*
X30862D01*
X24957Y6638D02*
X26138Y5457D01*
X24957Y6638D02*
Y11362D01*
X8606Y6650D02*
X23961D01*
Y350D02*
Y6650D01*
X8606Y350D02*
X23961D01*
X8606D02*
Y6650D01*
X8500Y11500D02*
Y17500D01*
Y11500D02*
X11500D01*
Y17500D01*
X8500D02*
X11500D01*
X9500D02*
X10000Y17000D01*
X10500Y17500D01*
G54D32*
X26000Y2500D02*
Y4500D01*
Y2500D02*
X27000D01*
Y4500D01*
X26000D02*
X27000D01*
X7000Y500D02*
Y2500D01*
Y500D02*
X8000D01*
Y2500D01*
X7000D02*
X8000D01*
X6500Y14000D02*
Y16000D01*
Y14000D02*
X7500D01*
Y16000D01*
X6500D02*
X7500D01*
X500Y14000D02*
Y16000D01*
Y14000D02*
X1500D01*
Y16000D01*
X500D02*
X1500D01*
X25500Y14000D02*
Y16000D01*
Y14000D02*
X26500D01*
Y16000D01*
X25500D02*
X26500D01*
X31500Y14000D02*
Y16000D01*
Y14000D02*
X32500D01*
Y16000D01*
X31500D02*
X32500D01*
G54D33*
X5700Y3800D02*
Y4250D01*
X6300Y2950D02*
Y3400D01*
X5700Y2950D02*
X6300D01*
X5700D02*
Y3400D01*
Y4250D02*
X6300D01*
Y3800D02*
Y4250D01*
X7200D02*
Y4700D01*
Y4250D02*
X7800D01*
Y5100D02*
Y5550D01*
X7200D02*
X7800D01*
X7200Y5100D02*
Y5550D01*
X7800Y4250D02*
Y4700D01*
X3600Y13300D02*
X4050D01*
X2750Y12700D02*
X3200D01*
X2750D02*
Y13300D01*
X3200D01*
X4050Y12700D02*
Y13300D01*
X3600Y12700D02*
X4050D01*
X2700Y14800D02*
Y15250D01*
X3300Y13950D02*
Y14400D01*
X2700Y13950D02*
X3300D01*
X2700D02*
Y14400D01*
Y15250D02*
X3300D01*
Y14800D02*
Y15250D01*
X5200Y14800D02*
Y15250D01*
X5800Y13950D02*
Y14400D01*
X5200Y13950D02*
X5800D01*
X5200D02*
Y14400D01*
Y15250D02*
X5800D01*
Y14800D02*
Y15250D01*
Y13300D02*
X6250D01*
X4950Y12700D02*
X5400D01*
X4950D02*
Y13300D01*
X5400D01*
X6250Y12700D02*
Y13300D01*
X5800Y12700D02*
X6250D01*
X5800Y16700D02*
X6250D01*
Y17300D01*
X4950D02*
X5400D01*
X4950Y16700D02*
Y17300D01*
Y16700D02*
X5400D01*
X5800Y17300D02*
X6250D01*
X30300Y13750D02*
Y14200D01*
X29700Y14600D02*
Y15050D01*
X30300D01*
Y14600D02*
Y15050D01*
X29700Y13750D02*
X30300D01*
X29700D02*
Y14200D01*
X29800Y13300D02*
X30250D01*
X28950Y12700D02*
X29400D01*
X28950D02*
Y13300D01*
X29400D01*
X30250Y12700D02*
Y13300D01*
X29800Y12700D02*
X30250D01*
X29800Y16700D02*
X30250D01*
Y17300D01*
X28950D02*
X29400D01*
X28950Y16700D02*
Y17300D01*
Y16700D02*
X29400D01*
X29800Y17300D02*
X30250D01*
X27800Y13750D02*
Y14200D01*
X27200Y14600D02*
Y15050D01*
X27800D01*
Y14600D02*
Y15050D01*
X27200Y13750D02*
X27800D01*
X27200D02*
Y14200D01*
X26750Y12700D02*
X27200D01*
X27600Y13300D02*
X28050D01*
Y12700D02*
Y13300D01*
X27600Y12700D02*
X28050D01*
X26750D02*
Y13300D01*
X27200D01*
X26750Y17300D02*
X27200D01*
X26750Y16700D02*
Y17300D01*
X27600Y16700D02*
X28050D01*
Y17300D01*
X27600D02*
X28050D01*
X26750Y16700D02*
X27200D01*
X3300D02*
X3750D01*
Y17300D01*
X2450D02*
X2900D01*
X2450Y16700D02*
Y17300D01*
Y16700D02*
X2900D01*
X3300Y17300D02*
X3750D01*
X7800Y2750D02*
Y3200D01*
X7200Y3600D02*
Y4050D01*
X7800D01*
Y3600D02*
Y4050D01*
X7200Y2750D02*
X7800D01*
X7200D02*
Y3200D01*
X14700Y12300D02*
Y12750D01*
X15300Y11450D02*
Y11900D01*
X14700Y11450D02*
X15300D01*
X14700D02*
Y11900D01*
Y12750D02*
X15300D01*
Y12300D02*
Y12750D01*
X13300Y12300D02*
Y12750D01*
X12700D02*
X13300D01*
X12700Y11450D02*
Y11900D01*
Y11450D02*
X13300D01*
Y11900D01*
X12700Y12300D02*
Y12750D01*
X15300Y13250D02*
Y13700D01*
X14700Y14100D02*
Y14550D01*
X15300D01*
Y14100D02*
Y14550D01*
X14700Y13250D02*
X15300D01*
X14700D02*
Y13700D01*
X12700Y13250D02*
Y13700D01*
Y13250D02*
X13300D01*
Y14100D02*
Y14550D01*
X12700D02*
X13300D01*
X12700Y14100D02*
Y14550D01*
X13300Y13250D02*
Y13700D01*
G54D34*
X7200Y4800D02*
X7800D01*
X5700Y16700D02*
Y17300D01*
X29700Y16700D02*
Y17300D01*
X27300Y16700D02*
Y17300D01*
X3200Y16700D02*
Y17300D01*
X12700Y12200D02*
X13300D01*
X12700Y13800D02*
X13300D01*
G54D35*
X24500Y1000D02*
Y5000D01*
X25500D01*
Y1000D02*
Y5000D01*
X24500Y1000D02*
X25500D01*
G54D36*
X-50650Y66750D02*
Y69249D01*
X-49817Y68416D01*
X-48984Y69249D01*
Y66750D01*
X-47734Y68416D02*
X-46901D01*
X-46485Y68000D01*
Y66750D01*
X-47734D01*
X-48151Y67167D01*
X-47734Y67583D01*
X-46485D01*
X-45652Y66750D02*
X-44819D01*
X-45235D01*
Y68416D01*
X-45652D01*
X-43569Y66750D02*
X-42319D01*
X-41903Y67167D01*
X-42319Y67583D01*
X-43152D01*
X-43569Y68000D01*
X-43152Y68416D01*
X-41903D01*
X-38571D02*
X-37738Y66750D01*
X-36904Y68416D01*
X-35655Y66750D02*
X-34822D01*
X-34405Y67167D01*
Y68000D01*
X-34822Y68416D01*
X-35655D01*
X-36071Y68000D01*
Y67167D01*
X-35655Y66750D01*
X-33572Y68416D02*
Y67167D01*
X-33156Y66750D01*
X-31906D01*
Y68416D01*
X-31073Y66750D02*
X-29823D01*
X-29407Y67167D01*
X-29823Y67583D01*
X-30656D01*
X-31073Y68000D01*
X-30656Y68416D01*
X-29407D01*
X-26075Y66750D02*
Y68416D01*
X-24825D01*
X-24408Y68000D01*
Y66750D01*
X-23159Y69666D02*
Y68833D01*
X-23575Y68416D01*
X-20660Y66750D02*
X-21493D01*
X-21909Y67167D01*
Y68000D01*
X-21493Y68416D01*
X-20660D01*
X-20243Y68000D01*
Y67583D01*
X-21909D01*
X-18994Y68833D02*
Y68416D01*
X-19410D01*
X-18577D01*
X-18994D01*
Y67167D01*
X-18577Y66750D01*
X-16078D02*
X-16911D01*
X-17327Y67167D01*
Y68000D01*
X-16911Y68416D01*
X-16078D01*
X-15661Y68000D01*
Y67583D01*
X-17327D01*
X-14828Y66750D02*
X-13579D01*
X-13162Y67167D01*
X-13579Y67583D01*
X-14412D01*
X-14828Y68000D01*
X-14412Y68416D01*
X-13162D01*
X-9830Y65917D02*
Y68416D01*
X-8580D01*
X-8164Y68000D01*
Y67167D01*
X-8580Y66750D01*
X-9830D01*
X-6914Y68416D02*
X-6081D01*
X-5665Y68000D01*
Y66750D01*
X-6914D01*
X-7331Y67167D01*
X-6914Y67583D01*
X-5665D01*
X-4831Y66750D02*
X-3582D01*
X-3165Y67167D01*
X-3582Y67583D01*
X-4415D01*
X-4831Y68000D01*
X-4415Y68416D01*
X-3165D01*
X583Y66750D02*
X1417D01*
X1833Y67167D01*
Y68000D01*
X1417Y68416D01*
X583D01*
X167Y68000D01*
Y67167D01*
X583Y66750D01*
X2666Y69249D02*
Y66750D01*
X3916D01*
X4332Y67167D01*
Y67583D01*
Y68000D01*
X3916Y68416D01*
X2666D01*
X5165Y66750D02*
X5998D01*
X5582D01*
Y69249D01*
X5165D01*
X7248Y66750D02*
X8081D01*
X7664D01*
Y68416D01*
X7248D01*
X10164Y65917D02*
X10580D01*
X10997Y66333D01*
Y68416D01*
X9747D01*
X9331Y68000D01*
Y67167D01*
X9747Y66750D01*
X10997D01*
X13079D02*
X12246D01*
X11830Y67167D01*
Y68000D01*
X12246Y68416D01*
X13079D01*
X13496Y68000D01*
Y67583D01*
X11830D01*
X14329Y66750D02*
X15579D01*
X15995Y67167D01*
X15579Y67583D01*
X14746D01*
X14329Y68000D01*
X14746Y68416D01*
X15995D01*
X20993Y69249D02*
Y66750D01*
X19744D01*
X19327Y67167D01*
Y68000D01*
X19744Y68416D01*
X20993D01*
X23076Y66750D02*
X22243D01*
X21827Y67167D01*
Y68000D01*
X22243Y68416D01*
X23076D01*
X23493Y68000D01*
Y67583D01*
X21827D01*
X27241Y68833D02*
Y68416D01*
X26825D01*
X27658D01*
X27241D01*
Y67167D01*
X27658Y66750D01*
X29324D02*
X30157D01*
X30574Y67167D01*
Y68000D01*
X30157Y68416D01*
X29324D01*
X28908Y68000D01*
Y67167D01*
X29324Y66750D01*
X31407Y68416D02*
Y67167D01*
X31823Y66750D01*
X33073D01*
Y68416D01*
X34323Y68833D02*
Y68416D01*
X33906D01*
X34739D01*
X34323D01*
Y67167D01*
X34739Y66750D01*
X38488Y68416D02*
Y67167D01*
X38904Y66750D01*
X40154D01*
Y68416D01*
X41404Y68833D02*
Y68416D01*
X40987D01*
X41820D01*
X41404D01*
Y67167D01*
X41820Y66750D01*
X43070D02*
X43903D01*
X43486D01*
Y68416D01*
X43070D01*
X45152Y66750D02*
X45985D01*
X45569D01*
Y69249D01*
X45152D01*
X47235Y66750D02*
X48068D01*
X47652D01*
Y68416D01*
X47235D01*
X49318Y66750D02*
X50567D01*
X50984Y67167D01*
X50567Y67583D01*
X49734D01*
X49318Y68000D01*
X49734Y68416D01*
X50984D01*
X53066Y66750D02*
X52233D01*
X51817Y67167D01*
Y68000D01*
X52233Y68416D01*
X53066D01*
X53483Y68000D01*
Y67583D01*
X51817D01*
X54316Y68416D02*
Y66750D01*
Y67583D01*
X54733Y68000D01*
X55149Y68416D01*
X55566D01*
X56815Y67583D02*
Y69666D01*
Y67167D02*
Y66750D01*
X57648Y67583D02*
Y69666D01*
Y67167D02*
Y66750D01*
X-57050Y73299D02*
Y70800D01*
X-55384D01*
X-53301D02*
X-54134D01*
X-54551Y71217D01*
Y72050D01*
X-54134Y72466D01*
X-53301D01*
X-52885Y72050D01*
Y71633D01*
X-54551D01*
X-52052Y70800D02*
X-50802D01*
X-50385Y71217D01*
X-50802Y71633D01*
X-51635D01*
X-52052Y72050D01*
X-51635Y72466D01*
X-50385D01*
X-47053Y73299D02*
Y70800D01*
X-45804D01*
X-45387Y71217D01*
Y71633D01*
Y72050D01*
X-45804Y72466D01*
X-47053D01*
X-44138D02*
X-43304D01*
X-42888Y72050D01*
Y70800D01*
X-44138D01*
X-44554Y71217D01*
X-44138Y71633D01*
X-42888D01*
X-42055Y70800D02*
Y72466D01*
X-40805D01*
X-40389Y72050D01*
Y70800D01*
X-37890Y73299D02*
Y70800D01*
X-39139D01*
X-39556Y71217D01*
Y72050D01*
X-39139Y72466D01*
X-37890D01*
X-35807Y70800D02*
X-36640D01*
X-37056Y71217D01*
Y72050D01*
X-36640Y72466D01*
X-35807D01*
X-35390Y72050D01*
Y71633D01*
X-37056D01*
X-34557Y70800D02*
X-33308D01*
X-32891Y71217D01*
X-33308Y71633D01*
X-34141D01*
X-34557Y72050D01*
X-34141Y72466D01*
X-32891D01*
X-28309Y70800D02*
X-29142D01*
X-29559Y71217D01*
Y72050D01*
X-29142Y72466D01*
X-28309D01*
X-27893Y72050D01*
Y71633D01*
X-29559D01*
X-27060Y70800D02*
Y72466D01*
X-25810D01*
X-25394Y72050D01*
Y70800D01*
X-22061Y72466D02*
X-21228Y70800D01*
X-20395Y72466D01*
X-19562Y70800D02*
X-18729D01*
X-19146D01*
Y72466D01*
X-19562D01*
X-17063Y70800D02*
X-16230D01*
X-15813Y71217D01*
Y72050D01*
X-16230Y72466D01*
X-17063D01*
X-17479Y72050D01*
Y71217D01*
X-17063Y70800D01*
X-14980D02*
X-14147D01*
X-14564D01*
Y73299D01*
X-14980D01*
X-11648Y70800D02*
X-12481D01*
X-12898Y71217D01*
Y72050D01*
X-12481Y72466D01*
X-11648D01*
X-11231Y72050D01*
Y71633D01*
X-12898D01*
X-9982Y72883D02*
Y72466D01*
X-10398D01*
X-9565D01*
X-9982D01*
Y71217D01*
X-9565Y70800D01*
X-4150Y73299D02*
Y70800D01*
X-5400D01*
X-5817Y71217D01*
Y72050D01*
X-5400Y72466D01*
X-4150D01*
X-2068Y70800D02*
X-2901D01*
X-3317Y71217D01*
Y72050D01*
X-2901Y72466D01*
X-2068D01*
X-1651Y72050D01*
Y71633D01*
X-3317D01*
X-818Y70800D02*
X15D01*
X-402D01*
Y73299D01*
X-818D01*
X1264Y70800D02*
X2098D01*
X1681D01*
Y72466D01*
X1264D01*
X3347Y70800D02*
Y72466D01*
X3764D01*
X4180Y72050D01*
Y70800D01*
Y72050D01*
X4597Y72466D01*
X5013Y72050D01*
Y70800D01*
X5846D02*
X6679D01*
X6263D01*
Y72466D01*
X5846D01*
X8346Y72883D02*
Y72466D01*
X7929D01*
X8762D01*
X8346D01*
Y71217D01*
X8762Y70800D01*
X11261D02*
X10428D01*
X10012Y71217D01*
Y72050D01*
X10428Y72466D01*
X11261D01*
X11678Y72050D01*
Y71633D01*
X10012D01*
X12511Y70800D02*
Y72466D01*
X13760D01*
X14177Y72050D01*
Y70800D01*
X15427Y72883D02*
Y72466D01*
X15010D01*
X15843D01*
X15427D01*
Y71217D01*
X15843Y70800D01*
X19592D02*
X20425D01*
X20008D01*
Y73299D01*
X19592D01*
X22091Y72466D02*
X22924D01*
X23341Y72050D01*
Y70800D01*
X22091D01*
X21675Y71217D01*
X22091Y71633D01*
X23341D01*
X26673Y70800D02*
X27923D01*
X28339Y71217D01*
X27923Y71633D01*
X27089D01*
X26673Y72050D01*
X27089Y72466D01*
X28339D01*
X29172D02*
Y71217D01*
X29589Y70800D01*
X30838D01*
Y72466D01*
X31671D02*
Y70800D01*
Y71633D01*
X32088Y72050D01*
X32504Y72466D01*
X32921D01*
X34587Y70800D02*
Y72883D01*
Y72050D01*
X34171D01*
X35004D01*
X34587D01*
Y72883D01*
X35004Y73299D01*
X36670Y72466D02*
X37503D01*
X37919Y72050D01*
Y70800D01*
X36670D01*
X36253Y71217D01*
X36670Y71633D01*
X37919D01*
X40418Y72466D02*
X39169D01*
X38752Y72050D01*
Y71217D01*
X39169Y70800D01*
X40418D01*
X42501D02*
X41668D01*
X41252Y71217D01*
Y72050D01*
X41668Y72466D01*
X42501D01*
X42918Y72050D01*
Y71633D01*
X41252D01*
X46250Y72466D02*
Y71217D01*
X46666Y70800D01*
X47916D01*
Y72466D01*
X49166Y72883D02*
Y72466D01*
X48749D01*
X49582D01*
X49166D01*
Y71217D01*
X49582Y70800D01*
X50832D02*
X51665D01*
X51248D01*
Y72466D01*
X50832D01*
X52914Y70800D02*
X53748D01*
X53331D01*
Y73299D01*
X52914D01*
X54997Y70800D02*
X55830D01*
X55414D01*
Y72466D01*
X54997D01*
X57080Y70800D02*
X58329D01*
X58746Y71217D01*
X58329Y71633D01*
X57496D01*
X57080Y72050D01*
X57496Y72466D01*
X58746D01*
X59995D02*
X60829D01*
X61245Y72050D01*
Y70800D01*
X59995D01*
X59579Y71217D01*
X59995Y71633D01*
X61245D01*
X62078Y73299D02*
Y70800D01*
X63328D01*
X63744Y71217D01*
Y71633D01*
Y72050D01*
X63328Y72466D01*
X62078D01*
X64577Y70800D02*
X65410D01*
X64994D01*
Y73299D01*
X64577D01*
X67910Y70800D02*
X67077D01*
X66660Y71217D01*
Y72050D01*
X67077Y72466D01*
X67910D01*
X68326Y72050D01*
Y71633D01*
X66660D01*
X69159Y70800D02*
Y71217D01*
X69576D01*
Y70800D01*
X69159D01*
X71242D02*
Y71217D01*
X71658D01*
Y70800D01*
X71242D01*
X73325D02*
Y71217D01*
X73741D01*
Y70800D01*
X73325D01*
X75407D02*
Y71217D01*
X75824D01*
Y70800D01*
X75407D01*
M02*
